<svg xmlns="http://www.w3.org/2000/svg" viewBox="0 0 400 300" width="406" height="306" class="illustration styles_illustrationTablet__1DWOa"><g id="_521_user_interface_outline" data-name="#521_user_interface_outline"><path d="M189,137.61a4.78,4.78,0,0,0-3.7-4.47c-1.78-.38-3.59-.67-5.39-.95a1.18,1.18,0,0,1-1.07-.88c-.54-1.44-1.14-2.86-1.76-4.26a.92.92,0,0,1,.09-1.08c1.09-1.49,2.2-3,3.2-4.53a4.74,4.74,0,0,0-.42-5.78c-1.65-1.81-3.42-3.51-5.15-5.25a5.05,5.05,0,0,0-6.9-.63c-1.35.94-2.7,1.89-4,2.87a.93.93,0,0,1-1.08.11c-1.52-.68-3.07-1.31-4.62-1.91a.92.92,0,0,1-.7-.83c-.26-1.66-.53-3.3-.82-5a5,5,0,0,0-4.77-4.28c-2.54-.06-5.09-.05-7.63,0a4.83,4.83,0,0,0-4.62,3.78c-.41,1.84-.69,3.72-1,5.59a1,1,0,0,1-.69.84c-1.49.58-3,1.21-4.43,1.87a.84.84,0,0,1-1-.09c-1.47-1.08-2.94-2.17-4.47-3.18a4.75,4.75,0,0,0-5.83.38c-1.94,1.77-3.82,3.62-5.61,5.54a4.89,4.89,0,0,0-.32,6.5c1,1.43,2,2.83,3,4.26a1,1,0,0,1,.08.76q-.91,2.4-1.93,4.76a.93.93,0,0,1-.6.5c-1.64.3-3.29.57-4.94.83a5,5,0,0,0-4.42,4.65c-.09,2.65-.08,5.3,0,7.95a4.76,4.76,0,0,0,3.66,4.43c1.89.42,3.81.71,5.72,1a.94.94,0,0,1,.8.66c.59,1.51,1.23,3,1.89,4.48a.83.83,0,0,1-.08,1c-1,1.37-2,2.74-3,4.13a5,5,0,0,0,.58,6.7c1.59,1.62,3.19,3.23,4.82,4.82a5,5,0,0,0,6.86.52c1.39-1,2.77-1.94,4.14-3a.78.78,0,0,1,.9-.07c1.41.61,2.82,1.22,4.26,1.75a1.08,1.08,0,0,1,.79,1c.24,1.63.51,3.25.8,4.88a4.93,4.93,0,0,0,4.56,4.27c2.67.09,5.35.08,8,0a4.78,4.78,0,0,0,4.44-3.73c.4-1.81.67-3.64,1-5.46a1.07,1.07,0,0,1,.76-1c1.5-.57,3-1.19,4.44-1.84a.84.84,0,0,1,1,.1c1.37,1,2.76,2,4.13,3a5.3,5.3,0,0,0,3.33,1,4.35,4.35,0,0,0,3-1.21c1.74-1.65,3.44-3.36,5.14-5.06a5.09,5.09,0,0,0,.63-7c-.95-1.35-1.9-2.69-2.88-4a.84.84,0,0,1-.09-1c.65-1.49,1.28-3,1.86-4.5a1,1,0,0,1,.86-.68q2.48-.37,4.95-.81a5,5,0,0,0,4.32-4.73C189.09,142.82,189.08,140.21,189,137.61Zm-40.81,21.55a17.6,17.6,0,1,1,17.65-17.57A17.61,17.61,0,0,1,148.21,159.16Z" fill="#f56132"></path><path d="M148.1,183.4c-1.34,0-2.64,0-3.92-.06a5.94,5.94,0,0,1-5.51-5.09c-.32-1.81-.58-3.41-.81-4.91,0-.1,0-.15,0-.17l-.1,0c-1.48-.54-2.91-1.16-4.3-1.76-1.37,1-2.73,2-4.09,2.91a6,6,0,0,1-8.13-.62c-1.45-1.41-3-2.95-4.84-4.84a6,6,0,0,1-.69-8c1-1.41,2-2.81,3-4.12-.8-1.79-1.39-3.21-1.91-4.53l-1.11-.21c-1.54-.25-3.13-.52-4.69-.86a5.77,5.77,0,0,1-4.45-5.38c-.08-2.85-.08-5.47,0-8a6,6,0,0,1,5.26-5.61c1.61-.25,3.22-.51,4.82-.8.6-1.4,1.22-2.92,1.85-4.58-.5-.73-1-1.46-1.54-2.18s-.94-1.32-1.4-2a5.89,5.89,0,0,1,.41-7.75c1.77-1.89,3.67-3.78,5.67-5.6a5.74,5.74,0,0,1,7-.47c1.44.94,2.84,2,4.18,3l.33.24h0c1.67-.75,3.13-1.36,4.49-1.89l.09,0,.15-1.08c.25-1.51.5-3.07.84-4.59a5.84,5.84,0,0,1,5.57-4.56c2.83-.05,5.34-.05,7.68,0a6,6,0,0,1,5.73,5.11c.29,1.65.56,3.3.82,5v0l.05,0c1.8.69,3.32,1.33,4.69,1.94l.1,0c1.37-1.06,2.75-2,4-2.92a6,6,0,0,1,8.18.75l1.34,1.33c1.28,1.27,2.6,2.58,3.84,3.95a5.76,5.76,0,0,1,.52,7c-.89,1.39-1.88,2.74-2.84,4l-.39.53h0a.13.13,0,0,0,0,.07c.73,1.66,1.3,3,1.78,4.32a1,1,0,0,0,.09.19h0a.59.59,0,0,0,.2,0c1.84.29,3.64.58,5.44,1a5.75,5.75,0,0,1,4.49,5.43h0c.07,2.84.07,5.41,0,7.87a6,6,0,0,1-5.14,5.69q-2.49.43-5,.81l-.1,0c-.61,1.71-1.31,3.34-1.85,4.56,1,1.37,1.93,2.69,2.87,4a6.07,6.07,0,0,1-.74,8.31l-.45.45c-1.53,1.53-3.11,3.11-4.71,4.63a5.34,5.34,0,0,1-3.63,1.48,6.33,6.33,0,0,1-3.94-1.2l-1.8-1.28-2.31-1.66c-1.72.75-3.12,1.33-4.48,1.85l-.1.05a.4.4,0,0,0,0,.12l-.17,1.06c-.24,1.46-.48,3-.81,4.46a5.74,5.74,0,0,1-5.39,4.51C150.82,183.38,149.44,183.4,148.1,183.4Zm-14.72-14.07a2.15,2.15,0,0,1,.82.19c1.37.6,2.79,1.21,4.21,1.73a2.07,2.07,0,0,1,1.43,1.79c.22,1.49.48,3.07.8,4.86a4,4,0,0,0,3.61,3.44c2.51.09,5.11.09,7.95,0a3.79,3.79,0,0,0,3.5-2.94c.31-1.44.55-2.92.79-4.35l.17-1.06a2,2,0,0,1,1.38-1.72c1.35-.51,2.75-1.09,4.4-1.82a1.83,1.83,0,0,1,2,.21l2.31,1.66,1.81,1.29a4.37,4.37,0,0,0,2.73.82,3.38,3.38,0,0,0,2.3-.94c1.57-1.49,3.14-3.06,4.66-4.58l.46-.46a4.1,4.1,0,0,0,.51-5.74c-.94-1.34-1.89-2.67-2.86-4a1.84,1.84,0,0,1-.2-2c.52-1.2,1.21-2.8,1.84-4.45A2,2,0,0,1,179.6,150c1.65-.25,3.29-.52,4.93-.8a4,4,0,0,0,3.49-3.77c.07-2.43.07-5,0-7.78h0a3.77,3.77,0,0,0-2.91-3.51c-1.75-.37-3.52-.66-5.33-.94a2.18,2.18,0,0,1-1.86-1.53c-.46-1.24-1-2.58-1.73-4.19a1.91,1.91,0,0,1,.2-2.08l.39-.53c.94-1.28,1.91-2.61,2.77-3.95a3.73,3.73,0,0,0-.32-4.57c-1.2-1.32-2.51-2.62-3.77-3.87l-1.35-1.34a4,4,0,0,0-5.61-.52c-1.28.89-2.64,1.85-4,2.86a1.94,1.94,0,0,1-2.08.22c-1.34-.6-2.84-1.22-4.58-1.9a1.89,1.89,0,0,1-1.32-1.6c-.26-1.66-.53-3.29-.82-4.94a4,4,0,0,0-3.81-3.45c-2.31-.05-4.79-.05-7.59,0a3.84,3.84,0,0,0-3.66,3c-.33,1.46-.58,3-.82,4.47l-.17,1.06a2,2,0,0,1-1.31,1.61c-1.33.52-2.76,1.12-4.39,1.85a1.81,1.81,0,0,1-2-.2l-.32-.24c-1.33-1-2.7-2-4.1-2.9a3.72,3.72,0,0,0-4.6.28c-2,1.78-3.83,3.63-5.55,5.48a3.89,3.89,0,0,0-.24,5.25l1.39,2c.55.76,1.09,1.52,1.62,2.3a1.9,1.9,0,0,1,.19,1.66c-.66,1.74-1.3,3.32-2,4.82a1.92,1.92,0,0,1-1.34,1.09c-1.64.3-3.3.57-5,.83a4,4,0,0,0-3.58,3.69c-.08,2.5-.08,5.08,0,7.89a3.79,3.79,0,0,0,2.88,3.49c1.51.33,3.07.59,4.58.83l1.09.18a2,2,0,0,1,1.56,1.27c.52,1.33,1.11,2.74,1.88,4.45a1.81,1.81,0,0,1-.19,2c-1,1.31-2,2.71-3,4.11a4,4,0,0,0,.47,5.43c1.85,1.88,3.37,3.41,4.8,4.8a4,4,0,0,0,5.59.42c1.38-1,2.76-1.93,4.12-2.93A1.81,1.81,0,0,1,133.38,169.33Zm-16.72-38Zm1.78-4.64h0Zm59.53-.16Zm-19.53-16.65Zm-10.08,50.29h-.15a18.68,18.68,0,0,1-13.27-5.61,18.25,18.25,0,0,1-5.29-13.05A18.74,18.74,0,0,1,148.25,123h0a18.56,18.56,0,0,1,13.2,5.52,18.34,18.34,0,0,1,5.4,13.12,18.65,18.65,0,0,1-5.58,13.24A18.33,18.33,0,0,1,148.36,160.16Zm-.11-35.2a16.53,16.53,0,0,0-16.6,16.56,16.26,16.26,0,0,0,4.72,11.63,16.66,16.66,0,0,0,11.85,5h0a16.09,16.09,0,0,0,11.65-4.75,16.63,16.63,0,0,0,5-11.83A16.36,16.36,0,0,0,160,129.89,16.57,16.57,0,0,0,148.26,125Z" fill="#093f68"></path><rect x="148.23" y="59.75" width="108.84" height="182.83" rx="17.46" fill="#371a94"></rect><path d="M239.61,243.58H165.69a18.49,18.49,0,0,1-18.46-18.46V77.21a18.49,18.49,0,0,1,18.46-18.46h73.92a18.48,18.48,0,0,1,18.46,18.46V225.12A18.48,18.48,0,0,1,239.61,243.58ZM165.69,60.75a16.48,16.48,0,0,0-16.46,16.46V225.12a16.49,16.49,0,0,0,16.46,16.46h73.92a16.48,16.48,0,0,0,16.46-16.46V77.21a16.47,16.47,0,0,0-16.46-16.46Z" fill="#093f68"></path><rect x="148.23" y="84.61" width="108.84" height="132.9" fill="#fff"></rect><path d="M257.07,218.5H148.23a1,1,0,0,1-1-1V84.61a1,1,0,0,1,1-1H257.07a1,1,0,0,1,1,1V217.5A1,1,0,0,1,257.07,218.5Zm-107.84-2H256.07V85.61H149.23Z" fill="#093f68"></path><rect x="131.36" y="190.66" width="103.5" height="16.99" fill="#fff"></rect><path d="M234.86,208.65H131.36a1,1,0,0,1-1-1v-17a1,1,0,0,1,1-1h103.5a1,1,0,0,1,1,1v17A1,1,0,0,1,234.86,208.65Zm-102.5-2h101.5v-15H132.36Z" fill="#093f68"></path><rect x="217.61" y="190.66" width="17.26" height="16.99" fill="#371a94"></rect><path d="M234.86,208.65H217.61a1,1,0,0,1-1-1v-17a1,1,0,0,1,1-1h17.25a1,1,0,0,1,1,1v17A1,1,0,0,1,234.86,208.65Zm-16.25-2h15.25v-15H218.61Z" fill="#093f68"></path><path d="M225.05,202.93a4.71,4.71,0,1,1,4.71-4.71A4.72,4.72,0,0,1,225.05,202.93Zm0-7.42a2.71,2.71,0,1,0,2.71,2.71A2.71,2.71,0,0,0,225.05,195.51Z" fill="#093f68"></path><path d="M232.14,205.06a1.08,1.08,0,0,1-.61-.2l-4.37-3.32a1,1,0,0,1,1.21-1.6l4.37,3.32a1,1,0,0,1,.2,1.41A1,1,0,0,1,232.14,205.06Z" fill="#093f68"></path><path d="M186.53,200.16h-44.3a1,1,0,0,1,0-2h44.3a1,1,0,0,1,0,2Z" fill="#dfeaef"></path><path d="M200,200.16h-6a1,1,0,0,1,0-2h6a1,1,0,0,1,0,2Z" fill="#dfeaef"></path><rect x="178.28" y="49.51" width="103.34" height="132.9" fill="#fff"></rect><path d="M281.62,183.4H178.28a1,1,0,0,1-1-1V49.51a1,1,0,0,1,1-1H281.62a1,1,0,0,1,1,1V182.4A1,1,0,0,1,281.62,183.4Zm-102.34-2H280.62V50.51H179.28Z" fill="#093f68"></path><path d="M266.08,116.21H194.43a1,1,0,0,1-1-1V65.09a1,1,0,0,1,1-1h71.65a1,1,0,0,1,1,1v50.12A1,1,0,0,1,266.08,116.21Zm-70.65-2h69.65V66.09H195.43Z" fill="#dfeaef"></path><path d="M266.08,126.15H194.43a1,1,0,0,1,0-2h71.65a1,1,0,0,1,0,2Z" fill="#dfeaef"></path><path d="M266.08,136.85H251.82a1,1,0,0,1,0-2h14.26a1,1,0,0,1,0,2Z" fill="#dfeaef"></path><path d="M242.09,136.85H194.43a1,1,0,0,1,0-2h47.66a1,1,0,0,1,0,2Z" fill="#dfeaef"></path><path d="M266.08,147.55H223.45a1,1,0,0,1,0-2h42.63a1,1,0,0,1,0,2Z" fill="#dfeaef"></path><path d="M215.43,147.55h-21a1,1,0,0,1,0-2h21a1,1,0,0,1,0,2Z" fill="#dfeaef"></path><rect x="193.72" y="156.43" width="72.36" height="15.28" rx="7.64" fill="#371a94"></rect><path d="M258.44,172.7H201.36a8.64,8.64,0,1,1,0-17.27h57.08a8.64,8.64,0,1,1,0,17.27Zm-57.08-15.27a6.64,6.64,0,1,0,0,13.27h57.08a6.64,6.64,0,1,0,0-13.27Z" fill="#093f68"></path><path d="M204.93,58.5H196.2a1,1,0,0,1,0-2h8.73a1,1,0,0,1,0,2Z" fill="#093f68"></path><path d="M247.87,58.5h-4.42a1,1,0,0,1,0-2h4.42a1,1,0,0,1,0,2Z" fill="#093f68"></path><path d="M263.38,58.5H259a1,1,0,0,1,0-2h4.43a1,1,0,0,1,0,2Z" fill="#093f68"></path><circle cx="202.65" cy="229.52" r="6.67" fill="#093f68"></circle></g></svg>